<svg width="126" height="26" viewBox="0 0 126 26" fill="none" xmlns="http://www.w3.org/2000/svg">
<path fill-rule="evenodd" clip-rule="evenodd" d="M19.2149 0L0 11.1483V14.864L19.2149 26L28.8108 20.4318V16.7157L19.2149 22.2839L3.19876 13L19.2149 3.71609V0ZM9.60845 13L12.8064 14.864L22.4145 9.28395V5.56827L9.60845 13ZM16.0049 16.7157L19.215 18.5801L25.6125 14.864V11.1483L16.0049 16.7157Z" fill="#F8893D"/>
<mask id="mask0_936_213" style="mask-type:luminance" maskUnits="userSpaceOnUse" x="37" y="6" width="89" height="15">
<path fill-rule="evenodd" clip-rule="evenodd" d="M37.4805 6.43127H125.544V20.081H37.4805V6.43127Z" fill="white"/>
</mask>
<g mask="url(#mask0_936_213)">
<path fill-rule="evenodd" clip-rule="evenodd" d="M118.283 17.5227H115.801V8.98913H118.283C121.093 8.98913 122.569 10.8515 122.569 13.2664C122.569 15.5789 120.99 17.5227 118.283 17.5227ZM118.282 6.43129H112.888V20.081H118.282C122.569 20.081 125.543 17.3794 125.543 13.2664C125.543 9.15295 122.569 6.43129 118.282 6.43129ZM100.338 15.2106L102.471 9.33719L104.605 15.2106H100.338ZM100.645 6.43129L95.3533 20.081H98.676L99.5377 17.7685H105.404L106.245 20.081H109.568L104.296 6.43129H100.645ZM87.5413 12.6729H84.4851V8.98913H87.5413C88.7105 8.98913 89.5927 9.685 89.5927 10.831C89.5927 11.977 88.7105 12.6729 87.5413 12.6729ZM92.566 10.831C92.566 8.29365 90.8226 6.43129 87.9716 6.43129H81.5717V20.081H84.4843V15.2307H86.6177L89.3045 20.081H92.6481L89.571 14.883C91.048 14.5349 92.566 13.2459 92.566 10.831ZM67.5646 20.081H77.2461V17.5227H70.4775V14.4329H77.1028V11.8746H70.4775V8.98912H77.2461V6.43129H67.5646V20.081ZM57.1478 16.9293L53.3534 6.43129H50.0303L55.3222 20.081H58.9733L64.2443 6.43129H60.922L57.1478 16.9293ZM37.4805 20.081H47.1616V17.5227H40.3931V14.4328H47.0179V11.8746H40.3931V8.98911H47.1616V6.43127H37.4805V20.081Z" fill="white"/>
</g>
</svg>
