<svg width="140" height="36" viewBox="0 0 140 36" fill="none" xmlns="http://www.w3.org/2000/svg">
<rect width="35.7401" height="36" rx="4.5" fill="#E63030"/>
<path fill-rule="evenodd" clip-rule="evenodd" d="M2.59961 12.3459C2.59961 6.96264 6.96362 2.59863 12.3469 2.59863H21.5743V10.6564C21.5743 11.7331 20.7015 12.6059 19.6249 12.6059H2.59961V12.3459ZM33.1416 23.6541C33.1416 29.0374 28.7776 33.4014 23.3943 33.4014H14.1669V25.3436C14.1669 24.2669 15.0397 23.3941 16.1163 23.3941H33.1416V23.6541ZM23.3943 12.9961C28.7776 12.9961 33.1416 17.3601 33.1416 22.7434V23.0033H12.3474C6.9641 23.0033 2.60009 18.6393 2.60009 13.256V12.9961H23.3943Z" fill="white"/>
<path d="M48.3798 15.8076C48.3798 16.5731 48.5105 17.2266 48.7719 17.7681C49.0333 18.3095 49.3974 18.7577 49.8642 19.1124C50.331 19.4485 50.8631 19.7006 51.4606 19.8686C52.0768 20.018 52.7396 20.0927 53.4491 20.0927C54.2146 20.0927 54.8681 20.0086 55.4096 19.8406C55.9511 19.6539 56.3899 19.4205 56.726 19.1404C57.062 18.8603 57.3048 18.5429 57.4541 18.1882C57.6035 17.8147 57.6782 17.4413 57.6782 17.0679C57.6782 16.3024 57.5008 15.7422 57.1461 15.3875C56.81 15.014 56.4366 14.7526 56.0258 14.6032C55.3163 14.3418 54.4854 14.0991 53.5331 13.8751C52.5996 13.6323 51.4419 13.3243 50.0602 12.9508C49.2014 12.7268 48.4825 12.4374 47.9037 12.0826C47.3435 11.7092 46.8954 11.2984 46.5593 10.8503C46.2233 10.4022 45.9805 9.92604 45.8312 9.42191C45.7005 8.91778 45.6351 8.40432 45.6351 7.88152C45.6351 6.87326 45.8405 6.00503 46.2513 5.27684C46.6807 4.52999 47.2408 3.91383 47.9317 3.42837C48.6225 2.94291 49.4067 2.58815 50.2843 2.36409C51.1619 2.12136 52.0488 2 52.945 2C53.9906 2 54.9708 2.14004 55.8857 2.42011C56.8193 2.68151 57.6315 3.08295 58.3224 3.62442C59.0319 4.16589 59.592 4.83806 60.0028 5.64094C60.4136 6.42514 60.619 7.34004 60.619 8.38565H57.1181C57.0247 7.09731 56.5859 6.19175 55.8017 5.66895C55.0175 5.12747 54.0186 4.85674 52.8049 4.85674C52.3942 4.85674 51.9741 4.90342 51.5446 4.99677C51.1152 5.07146 50.7231 5.21149 50.3683 5.41688C50.0136 5.60359 49.7148 5.865 49.4721 6.20108C49.248 6.53717 49.136 6.95728 49.136 7.46141C49.136 8.17092 49.3507 8.73107 49.7802 9.14184C50.2283 9.53394 50.8071 9.83269 51.5166 10.0381C51.5913 10.0567 51.8807 10.1408 52.3848 10.2901C52.9076 10.4208 53.4865 10.5702 54.1213 10.7383C54.7561 10.9063 55.3723 11.0743 55.9698 11.2424C56.5859 11.3918 57.0247 11.5038 57.2861 11.5785C57.9396 11.7839 58.5091 12.0639 58.9945 12.4187C59.48 12.7734 59.8814 13.1842 60.1989 13.651C60.5349 14.0991 60.7777 14.5846 60.927 15.1074C61.0951 15.6302 61.1791 16.153 61.1791 16.6758C61.1791 17.7961 60.9457 18.7577 60.4789 19.5605C60.0308 20.3447 59.4333 20.9889 58.6865 21.493C57.9396 21.9972 57.0901 22.3612 56.1378 22.5853C55.1856 22.828 54.2146 22.9494 53.2251 22.9494C52.0861 22.9494 51.0125 22.8094 50.0042 22.5293C48.996 22.2492 48.1184 21.8198 47.3715 21.241C46.6247 20.6621 46.0272 19.9246 45.5791 19.0284C45.131 18.1135 44.8976 17.0399 44.8789 15.8076H48.3798Z" fill="#0D0D17"/>
<path d="M72.8984 13.9591C72.861 13.455 72.749 12.9695 72.5623 12.5027C72.3943 12.0359 72.1515 11.6345 71.8341 11.2984C71.5354 10.9436 71.1619 10.6636 70.7138 10.4582C70.2844 10.2341 69.7989 10.1221 69.2574 10.1221C68.6973 10.1221 68.1838 10.2248 67.717 10.4302C67.2689 10.6169 66.8768 10.8876 66.5407 11.2424C66.2233 11.5785 65.9619 11.9799 65.7565 12.4467C65.5698 12.9135 65.4671 13.4176 65.4485 13.9591H72.8984ZM65.4485 16.0596C65.4485 16.6198 65.5231 17.1612 65.6725 17.684C65.8406 18.2068 66.0833 18.6643 66.4007 19.0564C66.7181 19.4485 67.1196 19.7659 67.605 20.0086C68.0905 20.2327 68.6693 20.3447 69.3415 20.3447C70.275 20.3447 71.0219 20.1487 71.582 19.7566C72.1609 19.3458 72.5903 18.739 72.8704 17.9361H75.8952C75.7271 18.7203 75.4377 19.4205 75.0269 20.0366C74.6162 20.6528 74.1214 21.1756 73.5425 21.6051C72.9637 22.0158 72.3102 22.3239 71.582 22.5293C70.8725 22.7534 70.1257 22.8654 69.3415 22.8654C68.2025 22.8654 67.1942 22.6787 66.3167 22.3052C65.4391 21.9318 64.6923 21.409 64.0761 20.7368C63.4786 20.0647 63.0212 19.2618 62.7038 18.3282C62.405 17.3946 62.2556 16.3677 62.2556 15.2474C62.2556 14.2205 62.4143 13.2496 62.7318 12.3347C63.0678 11.4011 63.5346 10.5889 64.1321 9.89804C64.7483 9.18852 65.4858 8.62838 66.3447 8.2176C67.2036 7.80683 68.1745 7.60144 69.2574 7.60144C70.3964 7.60144 71.414 7.84417 72.3102 8.32963C73.2251 8.79642 73.9813 9.42191 74.5788 10.2061C75.1763 10.9903 75.6057 11.8959 75.8671 12.9228C76.1472 13.9311 76.2219 14.9767 76.0912 16.0596H65.4485Z" fill="#0D0D17"/>
<path d="M77.6782 7.99355H80.703V10.0101H80.787C81.0297 9.65531 81.2911 9.32856 81.5712 9.02981C81.8513 8.73107 82.1594 8.479 82.4954 8.27362C82.8502 8.06823 83.2516 7.90952 83.6998 7.79749C84.1479 7.66679 84.6613 7.60144 85.2402 7.60144C86.1177 7.60144 86.9299 7.79749 87.6768 8.18959C88.4423 8.5817 88.9838 9.18852 89.3012 10.0101C89.8427 9.26321 90.4682 8.67505 91.1777 8.24561C91.8872 7.81617 92.7741 7.60144 93.8384 7.60144C95.3694 7.60144 96.5551 7.97487 97.3953 8.72173C98.2542 9.46859 98.6836 10.7196 98.6836 12.4747V22.4733H95.4908V14.0151C95.4908 13.4363 95.4721 12.9135 95.4348 12.4467C95.3974 11.9612 95.2854 11.5505 95.0987 11.2144C94.9306 10.8596 94.6693 10.5889 94.3145 10.4022C93.9597 10.2155 93.4743 10.1221 92.8581 10.1221C91.7752 10.1221 90.991 10.4582 90.5055 11.1304C90.0201 11.8025 89.7773 12.7548 89.7773 13.9871V22.4733H86.5845V13.1749C86.5845 12.1666 86.3978 11.4104 86.0244 10.9063C85.6696 10.3835 85.0068 10.1221 84.0358 10.1221C83.6251 10.1221 83.2236 10.2061 82.8315 10.3742C82.4581 10.5422 82.122 10.7849 81.8233 11.1023C81.5432 11.4198 81.3098 11.8119 81.1231 12.2787C80.955 12.7454 80.871 13.2776 80.871 13.8751V22.4733H77.6782V7.99355Z" fill="#0D0D17"/>
<path d="M101.292 7.99355H104.316V9.95405H104.372C104.82 9.11383 105.446 8.51635 106.249 8.16159C107.052 7.78816 107.92 7.60144 108.854 7.60144C109.992 7.60144 110.982 7.80683 111.822 8.2176C112.681 8.6097 113.391 9.16051 113.951 9.87003C114.511 10.5609 114.931 11.3731 115.211 12.3067C115.491 13.2402 115.631 14.2392 115.631 15.3034C115.631 16.2743 115.501 17.2173 115.239 18.1322C114.996 19.0471 114.614 19.8593 114.091 20.5688C113.587 21.2596 112.943 21.8198 112.158 22.2492C111.374 22.66 110.45 22.8654 109.386 22.8654C108.919 22.8654 108.452 22.8187 107.985 22.7253C107.519 22.6507 107.07 22.52 106.641 22.3332C106.212 22.1465 105.81 21.9131 105.437 21.6331C105.082 21.3343 104.783 20.9889 104.54 20.5968H104.484V27.8227H101.292V7.99355ZM112.438 15.2474C112.438 14.5939 112.354 13.9591 112.186 13.3429C112.018 12.7268 111.766 12.1853 111.43 11.7185C111.094 11.233 110.674 10.8503 110.17 10.5702C109.666 10.2715 109.087 10.1221 108.433 10.1221C107.089 10.1221 106.071 10.5889 105.381 11.5225C104.708 12.456 104.372 13.6977 104.372 15.2474C104.372 15.9756 104.456 16.6571 104.624 17.2919C104.811 17.9081 105.082 18.4402 105.437 18.8884C105.791 19.3365 106.212 19.6912 106.697 19.9526C107.201 20.214 107.78 20.3447 108.433 20.3447C109.162 20.3447 109.778 20.1954 110.282 19.8966C110.786 19.5979 111.197 19.2151 111.514 18.7483C111.85 18.2629 112.084 17.7214 112.214 17.1239C112.364 16.5077 112.438 15.8822 112.438 15.2474Z" fill="#0D0D17"/>
<path d="M117.489 7.99355H120.486V10.7943H120.542C120.635 10.4022 120.812 10.0194 121.074 9.64597C121.354 9.27254 121.681 8.93646 122.054 8.63771C122.446 8.3203 122.876 8.06823 123.342 7.88152C123.809 7.6948 124.285 7.60144 124.771 7.60144C125.144 7.60144 125.396 7.61078 125.527 7.62945C125.676 7.64812 125.826 7.66679 125.975 7.68547V10.7663C125.751 10.7289 125.518 10.7009 125.275 10.6822C125.051 10.6449 124.827 10.6262 124.603 10.6262C124.061 10.6262 123.548 10.7383 123.062 10.9623C122.596 11.1677 122.185 11.4851 121.83 11.9146C121.475 12.3253 121.195 12.8388 120.99 13.455C120.784 14.0711 120.682 14.7806 120.682 15.5835V22.4733H117.489V7.99355Z" fill="#0D0D17"/>
<path d="M132.64 22.8654C131.483 22.8654 130.447 22.6787 129.532 22.3052C128.635 21.9131 127.87 21.381 127.235 20.7088C126.619 20.0366 126.143 19.2338 125.807 18.3002C125.489 17.3666 125.331 16.3397 125.331 15.2194C125.331 14.1178 125.489 13.1002 125.807 12.1666C126.143 11.233 126.619 10.4302 127.235 9.758C127.87 9.08583 128.635 8.56302 129.532 8.18959C130.447 7.79749 131.483 7.60144 132.64 7.60144C133.798 7.60144 134.825 7.79749 135.721 8.18959C136.636 8.56302 137.402 9.08583 138.018 9.758C138.653 10.4302 139.129 11.233 139.446 12.1666C139.782 13.1002 139.95 14.1178 139.95 15.2194C139.95 16.3397 139.782 17.3666 139.446 18.3002C139.129 19.2338 138.653 20.0366 138.018 20.7088C137.402 21.381 136.636 21.9131 135.721 22.3052C134.825 22.6787 133.798 22.8654 132.64 22.8654ZM132.64 20.3447C133.35 20.3447 133.966 20.1954 134.489 19.8966C135.012 19.5979 135.441 19.2058 135.777 18.7203C136.113 18.2349 136.356 17.6934 136.505 17.0959C136.673 16.4797 136.757 15.8542 136.757 15.2194C136.757 14.6032 136.673 13.9871 136.505 13.3709C136.356 12.7548 136.113 12.2133 135.777 11.7465C135.441 11.2611 135.012 10.869 134.489 10.5702C133.966 10.2715 133.35 10.1221 132.64 10.1221C131.931 10.1221 131.315 10.2715 130.792 10.5702C130.269 10.869 129.84 11.2611 129.504 11.7465C129.168 12.2133 128.915 12.7548 128.747 13.3709C128.598 13.9871 128.523 14.6032 128.523 15.2194C128.523 15.8542 128.598 16.4797 128.747 17.0959C128.915 17.6934 129.168 18.2349 129.504 18.7203C129.84 19.2058 130.269 19.5979 130.792 19.8966C131.315 20.1954 131.931 20.3447 132.64 20.3447Z" fill="#0D0D17"/>
<path d="M48.0114 32.509C49.3004 32.509 50.1349 31.7349 50.2521 30.6731H49.2188C49.0838 31.2626 48.6257 31.6106 48.0185 31.6106C47.12 31.6106 46.5412 30.8613 46.5412 29.6717C46.5412 28.5033 47.1307 27.7682 48.0185 27.7682C48.6932 27.7682 49.1051 28.1944 49.2188 28.7057H50.2521C50.1385 27.6049 49.2401 26.8734 48.0007 26.8734C46.4631 26.8734 45.4688 28.031 45.4688 29.6965C45.4688 31.3407 46.4276 32.509 48.0114 32.509ZM53.4852 32.509C55.0228 32.509 56.0278 31.3833 56.0278 29.6965C56.0278 27.9991 55.0228 26.8734 53.4852 26.8734C51.9476 26.8734 50.9426 27.9991 50.9426 29.6965C50.9426 31.3833 51.9476 32.509 53.4852 32.509ZM53.4887 31.6177C52.4838 31.6177 52.015 30.7405 52.015 29.693C52.015 28.6489 52.4838 27.7611 53.4887 27.7611C54.4866 27.7611 54.9554 28.6489 54.9554 29.693C54.9554 30.7405 54.4866 31.6177 53.4887 31.6177ZM58.0748 29.1603C58.0748 28.2903 58.6075 27.7931 59.3461 27.7931C60.067 27.7931 60.5038 28.2654 60.5038 29.0573V32.3989H61.5656V28.9295C61.5656 27.58 60.8234 26.8734 59.7083 26.8734C58.888 26.8734 58.3518 27.2533 58.0996 27.8322H58.0322V26.9444H57.013V32.3989H58.0748V29.1603ZM65.3854 26.9444H64.21V26.4543C64.21 25.9714 64.4089 25.7086 64.9273 25.7086C65.1475 25.7086 65.3038 25.7583 65.4032 25.7903L65.6518 24.9309C65.5026 24.8741 65.1937 24.7853 64.764 24.7853C63.9011 24.7853 63.1447 25.2896 63.1447 26.3123V26.9444H62.3031V27.7967H63.1447V32.3989H64.21V27.7967H65.3854V26.9444ZM68.417 32.509C69.6066 32.509 70.4482 31.9231 70.6897 31.0353L69.6847 30.8542C69.493 31.3691 69.0313 31.6319 68.4276 31.6319C67.5185 31.6319 66.9077 31.0424 66.8793 29.9913H70.7572V29.6148C70.7572 27.644 69.5782 26.8734 68.3424 26.8734C66.8225 26.8734 65.8211 28.031 65.8211 29.7072C65.8211 31.4011 66.8083 32.509 68.417 32.509ZM66.8829 29.1958C66.9255 28.4217 67.4866 27.7505 68.3495 27.7505C69.1734 27.7505 69.7131 28.3613 69.7167 29.1958H66.8829ZM71.7353 32.3989H72.7971V29.068C72.7971 28.3542 73.3475 27.8393 74.1003 27.8393C74.3205 27.8393 74.5691 27.8783 74.6543 27.9032V26.8876C74.5478 26.8734 74.3382 26.8627 74.2033 26.8627C73.5641 26.8627 73.0172 27.2249 72.8184 27.8109H72.7615V26.9444H71.7353V32.3989ZM77.5287 32.509C78.7183 32.509 79.5599 31.9231 79.8014 31.0353L78.7965 30.8542C78.6047 31.3691 78.143 31.6319 77.5393 31.6319C76.6303 31.6319 76.0195 31.0424 75.9911 29.9913H79.8689V29.6148C79.8689 27.644 78.6899 26.8734 77.4541 26.8734C75.9342 26.8734 74.9328 28.031 74.9328 29.7072C74.9328 31.4011 75.92 32.509 77.5287 32.509ZM75.9946 29.1958C76.0372 28.4217 76.5983 27.7505 77.4612 27.7505C78.2851 27.7505 78.8249 28.3613 78.8284 29.1958H75.9946ZM81.9088 29.1603C81.9088 28.2903 82.4414 27.7931 83.1801 27.7931C83.901 27.7931 84.3378 28.2654 84.3378 29.0573V32.3989H85.3995V28.9295C85.3995 27.58 84.6574 26.8734 83.5423 26.8734C82.722 26.8734 82.1858 27.2533 81.9336 27.8322H81.8662V26.9444H80.847V32.3989H81.9088V29.1603ZM88.9211 32.509C90.2102 32.509 91.0447 31.7349 91.1619 30.6731H90.1285C89.9936 31.2626 89.5355 31.6106 88.9282 31.6106C88.0298 31.6106 87.451 30.8613 87.451 29.6717C87.451 28.5033 88.0404 27.7682 88.9282 27.7682C89.6029 27.7682 90.0149 28.1944 90.1285 28.7057H91.1619C91.0483 27.6049 90.1498 26.8734 88.9105 26.8734C87.3728 26.8734 86.3785 28.031 86.3785 29.6965C86.3785 31.3407 87.3373 32.509 88.9211 32.509ZM94.4482 32.509C95.6379 32.509 96.4795 31.9231 96.721 31.0353L95.716 30.8542C95.5242 31.3691 95.0626 31.6319 94.4589 31.6319C93.5498 31.6319 92.939 31.0424 92.9106 29.9913H96.7884V29.6148C96.7884 27.644 95.6095 26.8734 94.3737 26.8734C92.8538 26.8734 91.8523 28.031 91.8523 29.7072C91.8523 31.4011 92.8396 32.509 94.4482 32.509ZM92.9141 29.1958C92.9568 28.4217 93.5178 27.7505 94.3808 27.7505C95.2046 27.7505 95.7444 28.3613 95.7479 29.1958H92.9141Z" fill="#0D0D17"/>
</svg>
