<svg width="24" height="24" viewBox="0 0 24 24" fill="none" xmlns="http://www.w3.org/2000/svg">
<g id="remix-icons/fill/logos/telegram-fill" clip-path="url(#clip0_487_980)">
<g id="Group">
<path id="Vector" d="M12 22C6.47701 22 2.00001 17.523 2.00001 12C2.00001 6.477 6.47701 2 12 2C17.523 2 22 6.477 22 12C22 17.523 17.523 22 12 22ZM8.89001 13.17L8.90301 13.163L9.77301 16.033C9.88501 16.344 10.039 16.4 10.226 16.374C10.414 16.349 10.513 16.248 10.636 16.13L11.824 14.982L14.374 16.87C14.84 17.127 15.175 16.994 15.291 16.438L16.948 8.616C17.131 7.888 16.811 7.596 16.246 7.828L6.51301 11.588C5.84901 11.854 5.85301 12.226 6.39301 12.391L8.89001 13.171V13.17Z" fill="#0D0D17"/>
</g>
</g>
<defs>
<clipPath id="clip0_487_980">
<rect width="24" height="24" fill="white"/>
</clipPath>
</defs>
</svg>
