<svg width="131" height="30" viewBox="0 0 131 30" fill="none" xmlns="http://www.w3.org/2000/svg">
<path d="M45.7076 11.3229H42.1143V9.61912H51.3146V11.3229H47.7212V20.4612H45.7076V11.3229ZM61.111 20.4612L58.8961 17.286C58.8031 17.2964 58.6637 17.3015 58.4779 17.3015H56.0307V20.4612H54.0171V9.61912H58.4779C59.4175 9.61912 60.2358 9.77401 60.9328 10.0838C61.6298 10.3936 62.1642 10.8376 62.5359 11.4158C62.9077 11.9941 63.0935 12.6807 63.0935 13.4758C63.0935 14.2916 62.8947 14.9937 62.4972 15.5823C62.0997 16.1709 61.5292 16.6097 60.7857 16.8988L63.2794 20.4612H61.111ZM61.0645 13.4758C61.0645 12.784 60.8373 12.2522 60.383 11.8805C59.9287 11.5087 59.2626 11.3229 58.3849 11.3229H56.0307V15.6442H58.3849C59.2626 15.6442 59.9287 15.4558 60.383 15.0789C60.8373 14.702 61.0645 14.1676 61.0645 13.4758ZM66.524 9.61912H68.5376V20.4612H66.524V9.61912ZM77.7144 20.6161C76.6096 20.6161 75.6131 20.3761 74.7251 19.8959C73.8371 19.4157 73.1401 18.7497 72.6341 17.8979C72.1281 17.046 71.8752 16.0934 71.8752 15.0402C71.8752 13.9869 72.1281 13.0344 72.6341 12.1825C73.1401 11.3306 73.8371 10.6646 74.7251 10.1845C75.6131 9.70431 76.6096 9.46423 77.7144 9.46423C78.8193 9.46423 79.8157 9.70431 80.7037 10.1845C81.5918 10.6646 82.2888 11.328 82.7947 12.1748C83.3007 13.0215 83.5537 13.9766 83.5537 15.0402C83.5537 16.1037 83.3007 17.0589 82.7947 17.9056C82.2888 18.7523 81.5918 19.4157 80.7037 19.8959C79.8157 20.3761 78.8193 20.6161 77.7144 20.6161ZM77.7144 18.8504C78.4372 18.8504 79.0877 18.6878 79.666 18.3625C80.2442 18.0372 80.6986 17.5829 81.029 16.9995C81.3594 16.4161 81.5246 15.763 81.5246 15.0402C81.5246 14.3174 81.3594 13.6643 81.029 13.0809C80.6986 12.4974 80.2442 12.0431 79.666 11.7178C79.0877 11.3926 78.4372 11.2299 77.7144 11.2299C76.9916 11.2299 76.3411 11.3926 75.7628 11.7178C75.1846 12.0431 74.7303 12.4974 74.3998 13.0809C74.0694 13.6643 73.9042 14.3174 73.9042 15.0402C73.9042 15.763 74.0694 16.4161 74.3998 16.9995C74.7303 17.5829 75.1846 18.0372 75.7628 18.3625C76.3411 18.6878 76.9916 18.8504 77.7144 18.8504ZM96.5098 9.61912V20.4612H94.8525L88.8738 13.1196V20.4612H86.8758V9.61912H88.5331L94.5117 16.9608V9.61912H96.5098ZM100.606 9.61912H102.62V20.4612H100.606V9.61912ZM110.465 15.923L108.745 17.6888V20.4612H106.732V9.61912H108.745V15.1796L114.105 9.61912H116.366L111.812 14.4671L116.645 20.4612H114.29L110.465 15.923ZM127.2 17.9521H121.779L120.71 20.4612H118.635L123.514 9.61912H125.496L130.391 20.4612H128.284L127.2 17.9521ZM126.534 16.3722L124.489 11.6327L122.46 16.3722H126.534Z" fill="white"/>
<path fill-rule="evenodd" clip-rule="evenodd" d="M22.7922 0H10.5006C8.94462 0 7.50692 0.829994 6.72892 2.17754L0.583142 12.822C-0.194381 14.17 -0.194381 15.83 0.583142 17.1775L6.72892 27.822C7.50692 29.1695 8.94462 30 10.5006 30H22.7922C24.3482 30 25.7859 29.1695 26.5639 27.822L32.7096 17.1775C33.4876 15.83 33.4876 14.17 32.7096 12.822L26.5639 2.17754C25.7859 0.829994 24.3482 0 22.7922 0Z" fill="#F0B020"/>
<path fill-rule="evenodd" clip-rule="evenodd" d="M22.2655 15.863L18.6293 22.1609C18.5043 22.3775 18.2725 22.5115 18.022 22.5115H13.085C12.7697 22.5115 12.5727 22.17 12.7301 21.8967L14.4254 18.9607C14.4984 18.8338 14.4984 18.6774 14.4254 18.5509L12.6819 15.5305C12.4921 15.2023 12.4921 14.7978 12.6819 14.4697L14.4254 11.4492C14.4984 11.3224 14.4984 11.1664 14.4254 11.0395L12.7301 8.10303C12.5727 7.83019 12.7697 7.48865 13.085 7.48865H18.022C18.2725 7.48865 18.5043 7.62221 18.6293 7.83925L22.2655 14.1367C22.5737 14.671 22.5737 15.3288 22.2655 15.863Z" fill="#181818"/>
</svg>
