<?xml version="1.0" standalone="no"?>
<!DOCTYPE svg PUBLIC "-//W3C//DTD SVG 20010904//EN"
 "http://www.w3.org/TR/2001/REC-SVG-20010904/DTD/svg10.dtd">
<svg version="1.0" xmlns="http://www.w3.org/2000/svg"
 width="2240.000000pt" height="2240.000000pt" viewBox="0 0 2240.000000 2240.000000"
 preserveAspectRatio="xMidYMid meet">
<metadata>
Created by potrace 1.14, written by Peter Selinger 2001-2017
</metadata>
<g transform="translate(0.000000,2240.000000) scale(0.100000,-0.100000)"
fill="#000000" stroke="none">
<path d="M625 14075 c-5 -2 -42 -10 -82 -20 -174 -39 -328 -151 -432 -312 -33
-52 -76 -148 -86 -193 -2 -8 -8 -35 -14 -60 -12 -53 -10 -4557 2 -4604 8 -30
35 -106 58 -163 8 -18 17 -33 21 -33 4 0 8 -5 8 -12 0 -12 69 -107 101 -139
87 -87 195 -151 319 -191 l75 -23 2260 0 c2117 0 2264 1 2323 17 35 10 88 29
118 43 30 14 59 25 64 25 6 0 10 4 10 8 0 4 14 16 32 27 59 34 188 162 188
186 0 4 6 14 13 21 18 20 33 48 62 117 48 115 53 171 53 637 0 238 3 437 6
443 4 5 3 12 -2 15 -5 3 -7 20 -5 38 5 45 4 119 -2 128 -2 4 0 21 5 38 4 18 5
34 1 36 -4 3 -6 20 -4 38 5 45 4 119 -2 128 -2 4 0 21 5 38 4 18 5 34 1 36 -4
3 -6 20 -4 38 5 45 4 119 -2 128 -2 4 0 21 5 38 4 18 5 34 1 36 -4 3 -6 20 -4
38 5 45 4 119 -2 128 -2 4 0 21 4 38 5 17 7 33 4 36 -8 7 -6 932 1 945 4 5 3
12 -2 15 -5 3 -7 20 -5 38 5 45 4 119 -2 128 -2 4 0 21 5 38 4 18 5 34 1 36
-4 3 -6 20 -4 38 5 45 4 119 -2 128 -2 4 0 21 5 38 4 18 5 34 1 36 -4 3 -6 20
-4 38 5 45 4 119 -2 128 -2 4 0 21 5 38 4 18 5 34 1 36 -4 3 -6 20 -4 38 5 45
4 119 -2 128 -2 4 0 21 4 38 5 17 7 33 4 35 -2 3 -6 167 -7 364 -2 197 -6 369
-9 383 -4 14 -10 41 -13 60 -4 19 -20 62 -35 95 -72 155 -170 265 -303 338
-28 16 -55 32 -61 36 -5 4 -30 13 -55 20 -25 8 -52 16 -60 19 -8 2 -24 7 -35
10 -21 6 -4503 13 -4520 7z"/>
<path d="M8488 13765 c-2 -3 -54 -7 -114 -11 -107 -5 -159 -10 -159 -14 0 -2
-9 -4 -20 -6 -18 -2 -49 -8 -100 -19 -48 -10 -185 -54 -214 -69 -17 -9 -31
-14 -31 -12 0 3 -23 -8 -50 -24 -28 -17 -53 -30 -57 -30 -14 0 -136 -95 -185
-143 -72 -71 -97 -103 -161 -209 -20 -32 -57 -124 -63 -153 -2 -11 -9 -42 -16
-70 -13 -56 -16 -251 -5 -333 13 -101 95 -298 128 -310 5 -2 9 -9 9 -17 0 -16
132 -141 191 -182 80 -55 265 -133 350 -148 18 -3 39 -11 46 -17 7 -6 13 -8
13 -5 0 2 48 -9 108 -25 59 -16 114 -31 122 -33 8 -2 58 -15 110 -29 52 -14
142 -37 200 -52 211 -51 387 -109 450 -149 95 -60 161 -149 177 -238 11 -69
10 -174 -3 -227 -16 -61 -53 -140 -66 -140 -4 0 -8 -5 -8 -11 0 -33 -196 -169
-244 -169 -9 0 -16 -5 -16 -10 0 -6 -3 -9 -7 -8 -5 1 -21 -1 -38 -5 -99 -24
-160 -30 -285 -29 -159 0 -253 13 -360 49 -84 29 -131 51 -186 88 -43 29 -153
136 -154 148 0 5 -9 21 -19 36 -48 67 -84 202 -90 334 l-1 27 -281 0 -281 0 6
-77 c9 -114 10 -119 42 -262 3 -13 9 -32 15 -43 5 -10 7 -18 3 -18 -3 0 -2 -6
4 -12 6 -7 11 -17 12 -23 4 -22 64 -145 71 -145 4 0 9 -10 13 -23 3 -12 13
-31 23 -42 10 -11 31 -37 47 -58 57 -77 215 -217 245 -217 5 0 11 -4 13 -9 4
-11 144 -81 218 -109 45 -17 92 -32 153 -48 4 -1 8 -2 10 -3 1 -2 13 -4 27 -7
26 -4 91 -16 100 -19 8 -2 119 -16 165 -20 48 -5 285 -5 338 -1 34 3 103 13
145 20 10 2 35 6 57 10 84 15 263 70 340 106 44 20 113 58 153 84 69 46 222
184 222 202 1 5 14 25 30 44 17 19 30 40 30 46 0 7 3 14 8 16 8 3 54 97 71
143 59 170 63 410 8 585 -48 151 -180 335 -299 416 -24 16 -49 35 -56 42 -7 6
-20 12 -28 12 -8 0 -14 5 -14 10 0 6 -4 10 -9 10 -5 0 -30 10 -57 22 -27 12
-51 23 -54 23 -3 1 -12 5 -20 8 -20 8 -123 37 -152 43 -13 2 -72 18 -133 34
-60 17 -159 44 -220 60 -60 16 -125 34 -142 39 -18 5 -33 8 -33 5 0 -3 -8 0
-18 5 -11 6 -30 12 -43 15 -122 23 -282 75 -374 121 -118 60 -165 103 -203
190 -42 93 -37 249 11 341 43 83 199 187 312 209 17 3 41 8 55 10 33 7 149 18
180 18 60 0 205 -15 219 -23 9 -4 19 -8 24 -8 63 -2 218 -79 285 -141 29 -26
52 -53 52 -59 0 -7 4 -12 9 -12 9 0 57 -101 72 -153 10 -31 17 -75 23 -130 1
-15 5 -30 9 -33 5 -5 372 -8 530 -5 l27 1 -5 76 c-6 91 -11 120 -32 199 -14
55 -88 223 -102 235 -3 3 -21 28 -40 55 -31 45 -125 144 -178 186 -101 82
-295 180 -403 204 -8 2 -53 12 -100 23 -95 23 -138 29 -254 37 -43 3 -82 8
-86 10 -4 2 -9 2 -12 0z"/>
<path d="M10997 12864 c-1 -1 -29 -5 -62 -9 -281 -31 -564 -197 -728 -425 -38
-54 -86 -130 -81 -130 3 0 -3 -12 -14 -27 -40 -58 -100 -225 -122 -343 -21
-106 -24 -146 -24 -295 -1 -161 6 -230 30 -340 8 -38 17 -80 20 -93 16 -79
125 -306 169 -354 12 -13 24 -29 26 -36 5 -14 140 -152 149 -152 4 0 20 -11
36 -25 64 -56 287 -160 392 -182 24 -5 80 -15 117 -20 72 -9 292 -10 352 -1
77 11 247 55 292 74 76 34 146 69 149 77 2 4 9 7 16 7 16 0 152 113 197 165
51 57 129 167 129 181 0 6 7 17 15 24 8 6 14 15 13 18 -1 4 6 25 16 47 17 38
56 162 56 177 0 5 -107 8 -238 8 l-239 0 -43 -86 c-82 -168 -208 -260 -395
-290 -52 -8 -222 -9 -257 0 -16 3 -40 8 -55 11 -56 11 -189 85 -237 132 -81
79 -162 223 -180 318 -3 17 -9 46 -12 65 -4 19 -8 60 -9 90 l-2 55 850 5 c840
5 850 5 854 25 2 11 4 65 5 120 1 90 -3 147 -17 240 -7 53 -56 230 -66 239 -5
6 -9 16 -9 23 0 25 -105 228 -130 253 -3 3 -18 23 -35 45 -28 39 -132 145
-170 175 -73 56 -171 113 -285 164 -30 13 -114 38 -172 51 -50 11 -293 26
-301 19z m208 -417 c64 -18 91 -29 143 -58 57 -33 101 -67 131 -102 9 -10 26
-30 38 -43 54 -59 123 -223 137 -322 3 -24 8 -47 11 -52 3 -5 0 -12 -7 -16
-12 -7 -1123 -13 -1165 -5 -24 4 -24 5 -9 113 9 60 72 218 88 218 4 0 8 7 8
15 0 8 5 15 10 15 6 0 10 5 10 12 0 18 113 123 163 152 53 31 140 65 192 76
42 8 216 6 250 -3z"/>
<path d="M13544 12861 c-2 -2 -23 -6 -46 -8 -68 -6 -187 -41 -254 -74 -85 -41
-180 -123 -255 -217 -35 -44 -67 -78 -70 -76 -4 2 -7 66 -7 142 0 175 0 174
-11 167 -5 -3 -12 -2 -15 3 -5 8 -79 7 -103 -2 -7 -3 -13 -2 -13 2 0 4 -25 7
-55 7 -30 0 -55 -3 -55 -7 0 -4 -10 -4 -22 0 -28 9 -81 8 -97 -2 -6 -4 -11 -3
-11 1 0 8 -89 7 -97 -1 -3 -3 -6 -1989 -3 -2271 l0 -40 255 0 255 0 1 725 c0
399 2 743 5 765 10 88 64 227 112 287 43 54 118 118 173 147 32 17 59 29 59
27 0 -2 21 2 46 10 56 17 218 12 281 -8 124 -40 208 -162 229 -333 4 -33 7
-411 8 -840 l1 -780 253 0 c138 0 253 2 253 5 1 3 3 340 4 750 2 410 5 756 9
770 3 14 11 50 17 80 18 87 72 194 126 248 40 40 121 91 158 98 153 32 240 32
370 -3 49 -13 122 -65 144 -103 31 -53 60 -118 66 -148 18 -88 22 -240 22
-924 0 -417 4 -762 8 -766 4 -4 119 -7 256 -7 l249 0 -1 860 c0 473 -5 887
-10 920 -33 219 -111 363 -244 455 -27 19 -53 40 -57 45 -4 6 -8 6 -8 1 0 -5
-6 -4 -13 2 -17 14 -114 53 -157 62 -19 5 -45 11 -57 13 -75 18 -307 25 -373
12 -14 -3 -41 -8 -60 -11 -67 -12 -217 -70 -240 -94 -3 -3 -25 -19 -49 -35
-44 -30 -181 -158 -181 -170 0 -14 -52 -59 -57 -48 -12 31 -82 137 -110 167
-18 18 -56 50 -86 69 -55 37 -167 90 -167 80 0 -3 -6 -1 -12 4 -16 12 -88 30
-154 39 -57 7 -204 11 -210 5z"/>
<path d="M17357 12864 c-1 -1 -27 -5 -57 -8 -61 -6 -75 -9 -140 -25 -45 -12
-67 -19 -125 -42 -16 -7 -32 -13 -35 -14 -14 -3 -76 -39 -88 -51 -7 -8 -17
-14 -22 -14 -16 0 -120 -109 -157 -166 l-38 -59 -3 157 c-3 170 -5 176 -59
156 -13 -4 -23 -4 -23 0 0 4 -25 7 -55 7 -30 0 -55 -3 -55 -7 0 -4 -7 -5 -16
-1 -23 9 -115 10 -141 1 -13 -4 -23 -4 -23 0 0 4 -25 7 -55 7 -42 0 -55 -4
-56 -15 -4 -66 -3 -3120 1 -3139 l6 -24 249 1 250 0 1 571 c0 314 3 574 6 577
4 3 20 -15 38 -40 17 -25 34 -46 38 -46 4 0 16 -14 27 -30 11 -16 23 -30 27
-30 4 0 28 -15 53 -34 57 -44 171 -99 260 -125 121 -35 199 -45 345 -45 119 0
181 6 238 23 18 5 33 9 35 9 9 -4 121 41 162 64 27 16 58 32 68 35 9 3 17 9
17 14 0 5 13 15 28 23 40 21 154 137 206 209 44 63 102 169 131 242 44 110 93
330 99 445 2 26 6 52 10 58 3 6 2 13 -3 16 -5 3 -6 21 -1 40 4 19 6 36 5 38
-2 2 -6 50 -9 108 -4 58 -8 112 -10 120 -3 16 -16 95 -20 122 -1 10 -5 21 -9
24 -4 4 -7 16 -7 26 0 47 -91 273 -142 353 -68 105 -163 208 -250 272 -60 44
-165 103 -184 103 -7 0 -14 3 -16 8 -5 12 -215 75 -235 71 -4 -2 -28 1 -53 5
-43 6 -208 14 -213 10z m97 -414 c209 -33 403 -219 481 -460 65 -198 69 -439
11 -685 -33 -142 -151 -310 -276 -392 -40 -26 -80 -46 -88 -43 -1 0 -15 -6
-31 -14 -62 -33 -258 -38 -358 -11 -32 9 -62 17 -68 19 -46 11 -161 90 -210
142 -51 55 -100 123 -98 134 1 3 -4 12 -11 20 -18 21 -65 140 -77 197 -18 90
-22 118 -23 200 0 46 -5 83 -9 83 -5 0 -6 4 -3 9 3 4 8 46 11 92 5 90 8 109
30 209 42 191 153 355 296 437 41 23 125 53 172 60 18 3 33 6 34 7 8 7 162 5
217 -4z"/>
<path d="M19937 12864 c-1 -1 -24 -5 -52 -8 -135 -15 -278 -85 -405 -200 -82
-74 -143 -161 -176 -249 -27 -72 -26 -80 -26 181 -1 160 -3 205 -14 209 -22 8
-124 9 -124 0 0 -5 -5 -5 -10 -2 -10 6 -132 10 -155 5 -5 -1 -14 -1 -20 0 -23
5 -115 5 -115 -1 0 -3 -10 -5 -21 -5 l-22 1 1 -1150 c0 -632 1 -1152 1 -1155
1 -7 498 -6 505 1 3 3 6 282 7 620 1 600 2 642 32 764 40 161 147 324 266 404
116 78 234 107 385 95 56 -4 114 -8 131 -8 l30 -1 0 243 c1 133 -2 242 -5 243
-37 7 -208 18 -213 13z"/>
<path d="M21137 12864 c-1 -1 -33 -5 -72 -9 -82 -9 -110 -13 -110 -15 0 -1
-11 -4 -25 -6 -105 -19 -323 -107 -360 -144 -3 -3 -25 -18 -50 -34 -72 -46
-165 -134 -216 -203 -16 -21 -32 -40 -35 -43 -14 -11 -87 -150 -116 -220 -36
-85 -65 -191 -78 -277 -3 -18 -8 -50 -11 -70 -15 -89 -5 -446 13 -476 2 -4 6
-28 9 -54 2 -25 8 -51 11 -57 4 -6 9 -20 10 -31 13 -80 126 -310 192 -390 182
-217 415 -352 686 -396 87 -14 320 -19 400 -9 33 5 76 10 95 13 49 6 201 52
238 71 18 9 32 14 32 11 0 -4 12 2 28 13 15 11 47 29 71 42 24 12 49 26 55 31
178 141 244 215 333 372 43 77 78 169 109 287 22 84 29 124 40 230 4 49 5 271
0 295 -3 17 -10 67 -21 145 -15 108 -126 395 -157 408 -4 2 -8 9 -8 14 0 33
-234 288 -265 288 -2 0 -21 12 -42 26 -84 58 -300 148 -378 159 -11 2 -35 6
-54 9 -59 12 -315 27 -324 20z m228 -417 c67 -11 163 -58 232 -114 57 -46 67
-56 117 -119 58 -71 121 -222 140 -334 2 -8 6 -31 10 -50 20 -103 21 -275 1
-370 -3 -14 -7 -38 -10 -55 -8 -49 -56 -194 -66 -201 -5 -3 -9 -12 -9 -20 0
-21 -76 -131 -125 -180 -92 -92 -184 -142 -315 -171 -22 -5 -201 -5 -230 0
-79 13 -216 73 -255 110 -7 7 -28 27 -48 44 -38 35 -117 134 -117 148 0 5 -6
16 -13 24 -17 20 -63 132 -76 186 -63 254 -40 560 56 749 96 189 242 310 423
351 51 12 217 13 285 2z"/>
<path d="M10294 10105 c-63 -14 -92 -30 -128 -68 -43 -47 -59 -93 -61 -182
l-2 -80 -66 -3 c-74 -3 -75 -5 -69 -95 l4 -48 46 2 c98 3 87 46 85 -353 0
-194 1 -360 3 -369 3 -12 19 -15 82 -13 42 1 79 2 82 3 3 1 5 165 4 366 l0
365 25 1 c14 0 56 1 94 1 72 0 69 -2 69 58 0 11 0 34 -1 50 l-1 30 -94 0 -94
0 2 65 c3 99 38 135 126 130 19 -1 41 -4 49 -6 10 -3 20 13 32 51 27 83 25 88
-23 95 -79 11 -115 11 -164 0z"/>
<path d="M7555 9761 c-94 -34 -142 -68 -196 -141 -54 -73 -88 -199 -82 -307 3
-63 9 -118 13 -118 1 0 3 -11 6 -25 2 -14 16 -49 30 -78 53 -109 166 -191 284
-207 45 -6 108 -9 123 -5 10 3 18 5 62 14 57 11 145 68 182 118 28 39 71 143
62 153 -5 4 -76 7 -130 6 -30 -1 -38 -5 -43 -25 -8 -32 -51 -83 -85 -100 -70
-37 -172 -26 -234 25 -37 30 -82 111 -92 164 -6 35 -7 161 -1 190 20 93 93
184 163 202 47 12 125 8 156 -8 30 -16 98 -89 92 -99 -13 -22 24 -35 96 -34
l74 1 -3 34 c-2 19 -12 53 -24 76 -22 44 -81 113 -98 113 -5 0 -10 3 -10 8 0
8 -33 24 -96 45 -60 20 -189 19 -249 -2z"/>
<path d="M8426 9759 c-75 -23 -118 -52 -169 -112 -73 -88 -104 -183 -104 -321
0 -191 81 -339 223 -406 72 -35 187 -51 254 -36 14 3 35 8 46 10 38 8 118 53
155 88 90 84 134 201 131 348 -2 102 -12 150 -47 225 -28 60 -102 155 -121
155 -3 0 -18 9 -33 19 -66 47 -232 62 -335 30z m231 -142 c154 -81 184 -408
49 -535 -48 -45 -65 -52 -129 -58 -112 -9 -199 55 -237 174 -14 44 -18 185 -8
234 23 102 90 180 171 198 46 10 121 4 154 -13z"/>
<path d="M9430 9756 c-40 -16 -66 -36 -97 -74 -23 -28 -44 -48 -46 -44 -2 4
-3 35 -2 70 l1 62 -81 0 -82 0 1 -132 c1 -73 -2 -138 -7 -145 -4 -6 -3 -14 2
-17 7 -5 7 -15 1 -31 -5 -14 -6 -25 -2 -25 4 0 7 -81 7 -180 0 -99 -4 -180 -8
-180 -5 0 -5 -5 -1 -12 4 -6 7 -42 7 -80 0 -37 2 -69 6 -69 17 -3 147 -5 156
-2 6 2 9 105 9 286 -2 301 2 332 50 385 72 82 230 83 294 3 33 -42 45 -113 42
-261 -1 -36 -1 -72 -1 -80 1 -8 1 -44 0 -80 0 -36 0 -69 0 -75 0 -5 2 -48 3
-95 l3 -85 70 0 c39 0 76 1 83 3 16 5 17 598 1 659 -38 145 -124 214 -274 219
-64 2 -91 -2 -135 -20z"/>
<path d="M10835 9769 c-22 -5 -60 -19 -85 -32 -52 -26 -130 -94 -130 -114 0
-7 -4 -13 -9 -13 -13 0 -60 -116 -70 -175 -10 -53 -8 -187 4 -245 12 -56 63
-152 103 -193 90 -92 222 -133 366 -112 97 14 163 44 220 101 38 38 79 111 71
124 -5 9 -84 23 -129 24 -19 1 -33 -6 -40 -19 -15 -27 -62 -67 -96 -81 -47
-20 -170 -11 -218 16 -66 37 -120 134 -118 210 1 22 5 24 41 22 22 -1 67 -1
100 -1 33 0 105 0 160 0 55 -1 107 -1 115 -1 8 0 58 1 110 1 l95 2 -2 51 c-5
182 -51 289 -164 380 -63 52 -220 78 -324 55z m174 -144 c57 -19 93 -50 120
-103 22 -43 28 -112 11 -112 -5 0 -71 -1 -145 -1 -74 0 -171 1 -214 1 l-80 0
4 31 c3 17 10 38 17 47 7 8 12 17 11 19 -9 11 27 58 69 92 49 38 139 49 207
26z"/>
<path d="M11756 9751 c-35 -18 -59 -40 -79 -73 -17 -27 -31 -48 -32 -48 -1 0
-2 30 -2 68 l0 67 -79 2 c-43 0 -81 -3 -84 -7 -4 -6 -5 -837 -1 -860 1 -3 38
-5 84 -5 l82 0 2 292 c2 313 3 321 58 381 33 35 115 60 184 56 l56 -4 0 77 0
78 -70 1 c-57 1 -79 -4 -119 -25z"/>
<path d="M12268 9761 c-76 -25 -119 -53 -169 -111 -78 -91 -114 -211 -105
-350 6 -103 11 -131 25 -159 7 -11 9 -21 5 -21 -4 0 -1 -8 7 -17 8 -10 21 -30
29 -46 39 -79 170 -162 271 -172 30 -3 66 -7 82 -8 15 -2 27 -1 27 2 0 3 21 7
46 8 98 5 213 82 261 175 25 49 19 57 -46 65 -20 2 -48 8 -62 13 -24 7 -29 4
-45 -25 -48 -90 -203 -123 -312 -66 -50 27 -93 77 -88 102 0 3 -4 12 -11 20
-6 8 -15 36 -18 62 -6 44 -5 47 17 48 13 0 91 0 173 0 420 -2 438 -1 430 22
-2 6 -6 44 -10 82 -13 161 -51 243 -152 325 -78 63 -241 87 -355 51z m228
-144 c59 -31 114 -119 114 -182 l0 -25 -122 -1 c-190 -1 -322 2 -327 6 -5 6
21 97 31 110 5 6 17 22 28 37 11 14 43 38 72 52 43 21 62 25 114 22 34 -3 75
-11 90 -19z"/>
<path d="M13295 9774 c-72 -18 -134 -58 -166 -110 -11 -19 -25 -34 -29 -34 -8
0 -8 7 0 45 1 6 1 15 0 20 -1 6 -1 25 0 43 l2 33 -84 -3 -83 -3 0 -435 0 -434
78 -1 c46 -1 81 3 85 9 3 6 7 137 8 291 2 287 4 309 44 365 43 60 158 89 233
59 41 -16 87 -58 87 -79 0 -9 3 -20 7 -24 13 -13 15 -42 17 -321 2 -154 4
-285 5 -290 0 -6 35 -10 84 -10 l82 0 0 285 c0 332 -6 399 -43 458 -58 95
-123 133 -236 137 -39 2 -80 1 -91 -1z"/>
<path d="M14099 9761 c-59 -19 -147 -73 -156 -97 -3 -8 -9 -11 -14 -8 -5 3 -9
-2 -9 -10 0 -9 -4 -16 -10 -16 -5 0 -10 -7 -10 -15 0 -8 -3 -15 -7 -15 -7 0
-41 -73 -44 -92 0 -4 -7 -27 -14 -51 -8 -28 -12 -83 -10 -148 5 -193 85 -330
230 -394 43 -19 135 -42 155 -38 3 0 33 3 67 6 78 7 157 41 209 89 42 39 84
108 84 137 0 10 3 21 7 25 19 19 10 36 -20 37 -18 0 -54 1 -82 2 l-50 2 -21
-45 c-62 -132 -264 -144 -348 -21 -46 67 -57 108 -60 223 -4 176 79 293 215
302 91 6 156 -29 197 -109 l20 -41 77 3 c42 1 78 3 80 5 2 2 -6 30 -16 64 -25
83 -81 144 -167 185 -57 28 -79 33 -157 35 -65 2 -105 -2 -146 -15z"/>
<path d="M15010 9773 c-50 -15 -140 -57 -140 -64 0 -5 -4 -9 -10 -9 -9 0 -38
-28 -76 -73 -11 -13 -37 -57 -39 -67 -1 -3 -7 -18 -14 -34 -30 -73 -43 -224
-26 -306 10 -50 42 -136 62 -168 25 -37 80 -90 123 -116 41 -26 133 -53 173
-52 15 1 27 -1 27 -4 0 -6 50 -4 105 5 71 12 139 44 187 87 67 61 110 147 76
149 -13 1 -19 2 -100 14 -29 4 -48 3 -48 -3 0 -19 -66 -80 -103 -96 -78 -32
-202 -10 -265 48 -43 38 -89 159 -72 186 8 13 99 18 119 6 6 -4 11 -4 11 1 0
9 272 8 295 -1 8 -3 15 -2 15 2 0 4 39 7 87 7 l88 0 0 60 c1 130 -41 253 -114
328 -20 21 -65 52 -101 69 -56 27 -78 32 -155 34 -49 1 -97 0 -105 -3z m211
-169 c51 -35 87 -96 91 -152 l3 -44 -77 1 c-43 0 -145 0 -227 1 l-149 0 11 43
c11 46 43 102 74 130 71 63 200 73 274 21z"/>
</g>
</svg>
